<svg width="113" height="31" viewBox="0 0 113 31" fill="none" xmlns="http://www.w3.org/2000/svg">
<g clip-path="url(#clip0_463_6219)">
<path d="M29.2611 15.5012C29.2611 15.1946 29.0128 14.9463 28.7062 14.9463C28.6624 14.9463 28.6186 14.9463 28.5748 14.9609C23.7272 15.9686 18.6751 16.3629 13.4916 16.0854C11.9001 15.9978 10.3231 16.0854 8.77536 16.2022C8.65855 16.2022 8.54174 16.2314 8.42493 16.246C7.18382 16.4213 6.00111 16.9616 5.08122 17.8671C4.26354 18.6703 3.69409 19.6926 3.44587 20.8171C3.15384 22.1606 3.35826 23.548 3.92771 24.7893C4.48256 26.0014 5.35865 27.0383 6.45375 27.7977C7.65106 28.6009 8.95058 29.2143 10.3231 29.6378C11.1846 29.9007 11.9585 30.0613 12.8637 30.1782C12.8783 29.8277 13.3894 29.3019 13.4186 29.039C13.4332 28.7762 13.2434 28.5425 12.9806 28.5279C11.5642 28.5863 10.5129 28.5425 9.1842 28.046C7.81167 27.5348 6.58516 26.6878 5.60687 25.6071C5.13963 25.0814 4.74539 24.5118 4.49717 23.8547C4.24894 23.1975 4.14673 22.4965 4.19054 21.7955C4.32195 19.4443 6.14712 17.4582 8.48334 17.1223C9.76826 16.9324 11.1116 17.2683 12.1629 18.0423C12.7177 18.4366 13.185 18.9624 13.5208 19.5465C13.915 20.2183 14.2363 20.9047 14.4553 21.6495C14.9225 23.1829 14.9663 24.8623 14.7765 26.4396C14.6889 27.1113 14.5429 27.7831 14.3531 28.4257C14.2509 28.7908 14.1195 29.1705 13.9734 29.521C13.9442 29.5794 13.9296 29.6524 13.9296 29.74C13.9296 30.0321 14.1633 30.2804 14.4553 30.295C14.4991 30.295 14.5575 30.295 14.5867 30.295C18.1786 30.295 21.4639 29.0098 24.0046 26.8631C24.1068 26.7608 24.1652 26.6294 24.1652 26.4834C24.1652 26.3665 24.1214 26.2789 24.0776 26.1767C23.1285 24.5118 21.0551 22.1314 21.0551 22.1314C21.0551 22.1314 23.4059 24.2344 25.0851 25.1544C25.1727 25.1982 25.2749 25.242 25.3917 25.242C25.5377 25.242 25.6837 25.1836 25.7713 25.0814C25.7713 25.0814 25.7713 25.0814 25.7859 25.0668C27.9177 22.5257 29.2173 19.2398 29.2173 15.6619C29.2173 15.6181 29.2173 15.5743 29.2173 15.5304" fill="#187FC4"/>
<path d="M2.77423 22.1903C2.19018 20.9051 1.83975 19.5178 1.75214 18.1158C1.75214 17.9259 1.75214 17.6777 1.75214 17.4878C1.75214 17.225 1.54772 17.0059 1.28489 17.0059C1.02207 17.0059 0.467218 17.4878 0.0729805 17.4878C0.481819 20.5839 1.86895 23.5046 4.02995 25.7536C5.09585 26.8635 6.39537 27.7106 7.88471 28.1195C9.16963 28.47 10.513 28.3093 11.6957 27.7106C12.2651 27.4185 12.7762 27.0388 13.2142 26.5715C13.6669 26.0749 14.0173 25.4762 14.3531 24.892C14.7036 24.264 14.9956 23.6215 15.2584 22.9643C15.5504 22.2633 15.7841 21.5477 16.0907 20.8613C17.288 18.2618 18.9672 15.8814 21.2304 14.1143C22.3401 13.2527 23.552 12.5225 24.8223 11.953C25.4794 11.6609 26.151 11.4126 26.8373 11.2082C27.1585 11.1059 27.4944 11.0183 27.8302 10.9453C28.1222 10.8577 28.2974 10.5364 28.1952 10.2443C27.3629 8.14134 26.0342 6.24283 24.3551 4.73863C24.3551 4.73863 24.3259 4.70942 24.3113 4.70942C24.2236 4.6218 24.0922 4.56339 23.9462 4.56339C23.8002 4.56339 23.6688 4.65101 23.552 4.73863C20.8507 6.62253 18.8649 9.74777 18.8649 9.74777C18.8649 9.74777 19.9162 7.07525 22.1649 3.77478C22.2233 3.68715 22.2525 3.59953 22.2525 3.4827C22.2525 3.29285 22.1649 3.1322 22.0188 3.02998C22.0042 3.02998 21.9896 3.00077 21.9604 3.00077C20.5733 2.19755 19.0548 1.6134 17.4778 1.29211C16.3243 1.05845 15.1416 0.970828 13.9735 1.02924C13.9735 1.02924 13.9735 1.02924 13.9589 1.02924C13.6669 1.02924 13.4332 1.27751 13.4332 1.56959C13.2872 5.41041 14.0319 12.026 14.0319 12.026C14.0319 12.026 12.6886 5.51264 11.3744 1.89087C11.3014 1.67181 11.097 1.51117 10.8488 1.51117C10.805 1.51117 10.7758 1.51117 10.7466 1.51117C10.659 1.54038 10.5568 1.56959 10.4546 1.58419C8.24975 2.24137 6.20556 3.42428 4.541 5.0015C4.24897 5.27898 3.98615 5.55645 3.70872 5.86313C3.70872 5.86313 3.70872 5.87774 3.69412 5.89234C3.60651 5.99457 3.54811 6.126 3.54811 6.25744C3.54811 6.40348 3.60651 6.56412 3.70872 6.65174C6.58519 8.84233 8.71699 11.3396 8.71699 11.3396C8.71699 11.3396 5.98654 9.32425 2.74503 8.03911C2.65742 8.0099 2.56981 7.96609 2.46761 7.96609C2.27779 7.96609 2.11717 8.06832 2.01496 8.19975C1.54772 9.00297 1.13888 9.83539 0.832252 10.7116C0.438015 11.8215 0.17519 12.9898 0.0583791 14.1581C0.0291764 14.4502 0.014575 14.7715 0.321204 14.9321C0.438015 15.0052 0.584028 15.0052 0.715441 14.9906C0.91986 14.9468 1.10968 14.9175 1.3141 14.8737C2.08797 14.7423 2.87644 14.6839 3.65032 14.6985C5.21266 14.7131 6.77501 15.0052 8.24975 15.5455C9.60768 16.0566 10.8342 16.8453 11.7833 17.9698C13.55 20.0727 14.4991 23.6799 12.4549 25.9143C11.5205 26.9365 10.1479 27.4477 8.7754 27.3163C8.05993 27.2432 7.44667 27.0096 6.81881 26.6737C6.26396 26.367 5.72371 26.0165 5.24187 25.593C4.19057 24.6583 3.40209 23.4608 2.83264 22.1903" fill="#FABE00"/>
<path d="M65.3555 14.6693C65.3555 14.4356 66.6988 14.6255 67.3267 14.8007C67.8231 14.9613 68.6262 15.195 69.4731 15.8376C69.9549 16.2027 70.539 16.8745 70.539 17.6631C70.539 18.4517 70.0717 18.846 69.4877 18.846C69.181 18.8022 68.8452 18.6123 68.5678 18.3348C68.2757 18.0428 68.0567 17.4732 67.2244 16.524C66.29 15.4433 65.3555 14.8153 65.3555 14.6693Z" fill="black"/>
<path d="M64.4651 6.91506V5.41086L65.1368 5.2064C65.2244 5.17719 65.2828 5.10417 65.2828 5.01655C65.2828 4.91432 65.2098 4.8413 65.1222 4.8267L62.0851 4.35938V6.90045H55.4561L55.6605 7.35317H71.3277C71.3277 7.35317 71.5175 7.0757 71.3277 6.90045C71.1379 6.72521 69.4734 5.68833 69.4734 5.68833L68.3637 6.90045H64.4797L64.4651 6.91506Z" fill="black"/>
<path d="M61.7488 15.2676L59.0475 14.3184C58.0546 15.9686 57.1348 17.3122 55.6746 18.5389C55.6746 18.5389 55.6162 18.5973 55.6162 18.6557C55.6162 18.7287 55.6746 18.8018 55.7622 18.8018C55.7768 18.8018 55.7914 18.8018 55.8206 18.8018C57.1055 18.3344 58.9599 17.1515 61.1501 15.6619H61.6904C61.7926 15.6619 61.8802 15.5743 61.8802 15.4721C61.8802 15.3844 61.8218 15.3114 61.7488 15.2968" fill="black"/>
<path d="M91.1705 9.07639C90.9222 8.84273 89.1263 7.73283 89.1263 7.73283L88.002 9.07639H84.0012V5.39621L84.6729 5.19175C84.7605 5.16254 84.8189 5.08953 84.8189 5.0019C84.8189 4.89967 84.7459 4.82666 84.6583 4.81205L81.4898 4.34473V9.04718H75.401L75.6054 9.4999H81.4898C81.4606 11.7489 80.9349 13.5014 80.161 14.7719C79.1973 16.3783 77.7372 17.8679 75.3718 19.1677C75.3718 19.1677 75.3572 19.1677 75.3426 19.1677C75.3426 19.1677 75.2842 19.2407 75.2842 19.2845C75.2842 19.3575 75.3572 19.4306 75.4302 19.4306C75.4448 19.4306 75.4594 19.4306 75.474 19.4306C78.3359 18.6127 80.6283 17.3276 81.811 15.765C82.8331 14.436 83.534 12.9172 83.753 10.9749C83.9574 12.7128 84.3954 14.1001 85.0525 15.1516C85.8848 16.6412 87.2573 18.0432 89.1117 19.2115C89.1117 19.2115 89.1409 19.2261 89.1555 19.2407C89.1701 19.2407 89.1993 19.2553 89.2285 19.2553C89.2723 19.2553 89.3015 19.2407 89.3307 19.2115C89.3745 19.1823 89.4037 19.1385 89.4037 19.0801C89.5205 18.3937 90.4258 17.7803 91.1121 17.5467C88.9073 16.3199 87.1113 14.8449 86.2352 13.735C85.1839 12.4061 84.4538 10.9895 84.0596 9.4999H91.1851C91.1851 9.4999 91.4333 9.28085 91.1851 9.04718" fill="black"/>
<path d="M99.4789 4.97263C99.4789 4.97263 99.4643 5.07486 99.5081 5.13327C99.6979 5.45456 100.209 6.18475 100.501 6.68128C100.851 7.29465 100.881 7.51371 101.1 7.73276C101.289 7.92262 101.961 8.08326 102.355 7.80578C102.764 7.52831 102.808 6.97336 102.633 6.54985C102.472 6.12634 101.859 5.43995 101.187 5.19169C100.53 4.92882 99.5811 4.76817 99.4789 4.97263Z" fill="black"/>
<path d="M102.735 4.44625C102.735 4.44625 102.677 4.56309 102.735 4.6215C102.954 4.89897 103.407 5.46853 103.757 6.03808C104.21 6.75367 104.268 7.17718 104.502 7.42545C104.881 7.80515 105.568 7.73213 105.801 7.49847C106.137 7.17718 106.239 6.60763 106.122 6.18412C105.918 5.51234 105.305 4.94279 104.443 4.65071C103.669 4.38784 102.881 4.31482 102.735 4.46086" fill="black"/>
<path d="M99.2459 7.10412C99.6109 7.16254 99.8445 8.57912 99.4795 9.83505C99.1874 10.8719 98.472 11.3246 97.6835 11.1494C97.0702 11.018 96.8658 10.4776 97.0556 9.83505C97.2163 9.2801 97.7273 8.87119 98.0777 8.5207C98.4428 8.17021 98.8808 7.57145 98.983 7.27937C99.0268 7.17714 99.0852 7.06031 99.2313 7.08952" fill="black"/>
<path d="M105.947 14.3047V18.2185C105.947 19.1678 104.107 19.4599 103.538 19.4599C103.246 19.4599 103.26 19.1824 103.129 18.9341C103.027 18.7297 102.691 18.4376 100.851 18.3062L100.691 17.9411H103.611V14.3047H97.0403L96.8213 13.852H103.596V12.0703L106.385 12.377C106.648 12.5084 106.327 12.9611 105.918 13.1218V13.8374H109.466L110.722 12.4792C110.722 12.4792 112.226 13.6037 112.474 13.8374C112.708 14.071 112.474 14.2901 112.474 14.2901H105.903L105.947 14.3047Z" fill="black"/>
<path d="M113 8.63832C113 8.5653 112.957 8.50688 112.898 8.46307L110.474 7.25095L109.803 8.2148H107.481L110.182 5.81976L110.942 5.73214C111.044 5.73214 111.131 5.64452 111.131 5.54229C111.131 5.46927 111.073 5.39625 111.015 5.36704L108.226 4.35938C107.788 5.46927 107.247 6.82743 106.605 8.2002H99.4941V8.65292L109.949 8.68213L109.248 10.8873L109.525 10.9749L112.197 8.87198L112.84 8.81356C112.927 8.81356 113 8.72594 113 8.62371" fill="black"/>
<path d="M109.963 10.9016L107.641 9.38281L106.955 10.0984H99.917L100.121 10.5511H106.823L105.539 12.6249C105.758 12.6687 105.568 13.0484 105.933 13.1214L109.145 11.1791L109.831 11.2375C109.831 11.2375 109.831 11.2375 109.846 11.2375C109.948 11.2375 110.036 11.1499 110.036 11.0477C110.036 10.9892 110.007 10.9308 109.948 10.9016" fill="black"/>
<path d="M46.7682 15.8527C45.6293 15.3562 44.7386 14.7136 44.0815 13.9396H47.0018V14.626L49.265 14.2901V9.61687L49.7761 9.3686C49.8637 9.32479 49.9221 9.25177 49.9221 9.14954C49.9221 9.06192 49.8637 8.9743 49.7907 8.94509L47.6005 7.70376L46.8704 8.65301H43.9355V6.98817H50.7105C50.7105 6.98817 50.9296 6.7253 50.7105 6.52084C50.4915 6.31639 48.9876 5.44015 48.9876 5.44015L48.0239 6.52084H43.9355V5.42555L44.5926 5.22109C44.6802 5.19189 44.7386 5.11887 44.7386 5.03124C44.7386 4.92902 44.6656 4.856 44.578 4.84139L41.5993 4.38867V6.52084H34.8389L35.0287 6.98817H41.5993V8.65301H38.533L36.372 7.82059V14.626L38.6352 14.2901V13.9396H40.9276C39.1609 16.1302 37.0729 17.4884 34.9557 18.6859C34.9557 18.6859 34.8827 18.7589 34.8827 18.8173C34.8827 18.8903 34.9411 18.9634 35.0287 18.9634C35.0287 18.9634 35.0579 18.9634 35.0725 18.9634C36.9999 18.3354 39.2193 17.7366 41.6139 15.8235V19.4891L43.9501 19.1678V14.6114C44.3006 15.3562 44.6948 15.8235 45.162 16.3347C46.1841 17.503 47.6005 18.2478 49.4402 18.9488C49.7323 18.0287 50.1411 17.3131 50.842 17.0941L50.9588 16.9188C49.484 16.6267 48.0823 16.5099 46.7974 15.8819M41.6431 13.5161H38.679V11.4716H41.6431V13.5161ZM41.6431 11.0188H38.679V9.13494H41.6431V11.0188ZM43.9793 9.13494H47.031V11.0188H43.9793V9.13494ZM43.9793 11.4716H47.031V13.5161H43.9793V11.4716Z" fill="black"/>
<path d="M69.7947 9.25194L67.5315 7.9668L66.8014 8.91605H59.8512L57.6172 8.08363V13.9982L59.9534 13.6623V13.268H62.202V17.9266H59.2817L59.4424 18.2917C61.2821 18.4378 61.6034 18.7153 61.7056 18.9197C61.837 19.168 61.8224 19.4455 62.1144 19.4455C62.6693 19.4455 64.5236 19.1388 64.5236 18.2041V13.268H66.9183V13.9252L69.2399 13.5893V9.90911L69.7655 9.66085C69.8531 9.63164 69.9115 9.54402 69.9115 9.44179C69.9115 9.35417 69.8531 9.26654 69.7801 9.23734M66.9183 12.8007H59.9388V9.35417H66.9183V12.8007Z" fill="black"/>
<path d="M42.0959 24.1176C42.0959 24.1176 42.1251 24.1176 42.1251 24.0738V23.9569C42.1251 23.0953 42.1251 22.9347 42.1251 22.7594C42.1251 22.5696 42.0667 22.4819 41.8914 22.4381C41.8476 22.4381 41.76 22.4235 41.687 22.4235C41.6286 22.4235 41.5994 22.4235 41.5994 22.3797C41.5994 22.3359 41.6432 22.3213 41.7162 22.3213H43.1764C43.2494 22.3213 43.2932 22.3213 43.2932 22.3797C43.2932 22.4381 43.264 22.4235 43.191 22.4235C43.1472 22.4235 43.1034 22.4235 43.0303 22.4381C42.8843 22.4673 42.8405 22.5696 42.8259 22.7594C42.8259 22.9347 42.8259 25.9285 42.8405 26.1767C42.8405 26.3374 42.8989 26.4688 43.0449 26.4834C43.118 26.4834 43.2348 26.5126 43.3224 26.5126C43.3808 26.5126 43.41 26.5272 43.41 26.5564C43.41 26.6002 43.3662 26.6148 43.3078 26.6148H41.7892C41.7162 26.6148 41.6724 26.6002 41.6724 26.5564C41.6724 26.5272 41.687 26.5126 41.76 26.5126C41.833 26.5126 41.906 26.5126 41.9498 26.4834C42.0521 26.4542 42.0813 26.3374 42.1105 26.1767C42.1397 25.9431 42.1397 25.4903 42.1397 24.9646V24.4681C42.1397 24.4681 42.1251 24.4389 42.1105 24.4389H40.0517C40.0517 24.4389 40.0225 24.4389 40.0225 24.4681V24.9646C40.0225 25.4903 40.0225 25.9431 40.0517 26.1767C40.0517 26.3374 40.0955 26.4688 40.2561 26.4834C40.3291 26.4834 40.4459 26.5126 40.5335 26.5126C40.5919 26.5126 40.6211 26.5272 40.6211 26.5564C40.6211 26.6002 40.5773 26.6148 40.5189 26.6148H39.0004C39.0004 26.6148 38.8836 26.6002 38.8836 26.5564C38.8836 26.5272 38.9128 26.5126 38.9712 26.5126C39.0588 26.5126 39.1172 26.5126 39.161 26.4834C39.2632 26.4542 39.2924 26.3374 39.3216 26.1767C39.3508 25.9431 39.3508 22.9493 39.3362 22.7594C39.3362 22.5696 39.2778 22.4819 39.1026 22.4381C39.0588 22.4381 38.9712 22.4235 38.8982 22.4235C38.8397 22.4235 38.8105 22.4235 38.8105 22.3797C38.8105 22.3359 38.8544 22.3213 38.9274 22.3213H40.3875C40.3875 22.3213 40.5043 22.3213 40.5043 22.3797C40.5043 22.4381 40.4751 22.4235 40.4021 22.4235C40.3583 22.4235 40.3145 22.4235 40.2415 22.4381C40.0955 22.4673 40.0517 22.5696 40.0371 22.7594C40.0371 22.9347 40.0371 23.0953 40.0371 23.9569V24.0738C40.0371 24.0738 40.0517 24.1176 40.0663 24.1176H42.1251H42.0959Z" fill="black"/>
<path d="M48.6813 21.4747C48.6813 21.2119 48.6083 21.095 48.3747 21.0512C48.3163 21.0366 48.1995 21.022 48.0973 21.022C48.0243 21.022 47.9805 21.0074 47.9805 20.949C47.9805 20.8906 48.0389 20.876 48.1411 20.876H50.0685C50.1707 20.876 50.2291 20.8906 50.2291 20.949C50.2291 21.0074 50.1853 21.022 50.1123 21.022C50.0393 21.022 49.9955 21.022 49.9078 21.0512C49.718 21.095 49.6596 21.2119 49.645 21.4747C49.645 21.723 49.645 24.1326 49.645 24.1326C49.645 25.2279 49.8494 25.6953 50.1999 26.0019C50.5211 26.2794 50.8569 26.3086 51.1052 26.3086C51.4264 26.3086 51.806 26.2064 52.0981 25.8997C52.4923 25.4908 52.5215 24.8044 52.5215 24.0304C52.5215 24.0304 52.5215 21.723 52.5215 21.4747C52.5069 21.2119 52.4485 21.095 52.2149 21.0512C52.1565 21.0366 52.0397 21.022 51.952 21.022C51.8644 21.022 51.8352 21.0074 51.8352 20.949C51.8352 20.8906 51.879 20.876 51.9812 20.876H53.6312C53.7334 20.876 53.7772 20.8906 53.7772 20.949C53.7772 21.0074 53.7334 21.022 53.6458 21.022C53.5582 21.022 53.529 21.022 53.4414 21.0512C53.2516 21.095 53.1932 21.2119 53.1786 21.4747C53.1786 21.723 53.1786 23.8844 53.1786 23.8844C53.1786 24.7314 53.1056 25.6222 52.4923 26.1626C51.9812 26.6299 51.4702 26.7029 51.003 26.7029C50.6233 26.7029 49.9371 26.6883 49.4114 26.1772C49.0464 25.8267 48.7689 25.2717 48.7689 24.1765C48.7689 24.1765 48.7689 21.7084 48.7689 21.4601" fill="black"/>
<path d="M73.6635 22.7603C73.6635 22.5705 73.6051 22.4683 73.4737 22.4391C73.4153 22.4244 73.3423 22.4098 73.2839 22.4098C73.2255 22.4098 73.1963 22.4098 73.1963 22.3514C73.1963 22.3222 73.2401 22.3076 73.3277 22.3076H74.6856C74.6856 22.3076 74.8024 22.3076 74.8024 22.3514C74.8024 22.3952 74.7732 22.4098 74.7148 22.4098C74.6564 22.4098 74.6126 22.4098 74.5542 22.4244C74.4082 22.4537 74.3644 22.5559 74.3498 22.7457C74.3498 22.921 74.3498 25.944 74.3498 26.1923C74.3644 26.3383 74.4082 26.4551 74.5688 26.4697C74.6418 26.4697 74.7586 26.4989 74.8462 26.4989C74.9046 26.4989 74.9338 26.5135 74.9338 26.5427C74.9338 26.5866 74.89 26.6012 74.8316 26.6012H73.3131C73.3131 26.6012 73.1963 26.5866 73.1963 26.5427C73.1963 26.5135 73.2109 26.4989 73.2839 26.4989C73.3715 26.4989 73.4299 26.4989 73.4737 26.4697C73.5759 26.4551 73.6197 26.3529 73.6343 26.1923C73.6635 25.9586 73.6635 22.9356 73.6343 22.7603" fill="black"/>
<path d="M80.7307 25.1261C80.7307 24.8194 80.6723 24.7026 80.5993 24.5273C80.5701 24.4397 79.84 23.1838 79.6502 22.8917C79.5188 22.6872 79.3874 22.5412 79.2705 22.4682C79.1975 22.4244 79.1099 22.3952 79.0515 22.3952C79.0077 22.3952 78.9785 22.3952 78.9785 22.3513C78.9785 22.3221 79.0077 22.2929 79.0807 22.2929H80.3364C80.3364 22.2929 80.4241 22.3075 80.4241 22.3513C80.4241 22.3952 80.3802 22.3952 80.3072 22.4098C80.2634 22.4098 80.2342 22.4682 80.2342 22.512C80.2342 22.5558 80.2634 22.6288 80.2926 22.7018C80.3656 22.8771 81.1249 24.2352 81.2125 24.3959C81.2563 24.2645 81.9426 23.0085 82.0156 22.8333C82.074 22.7018 82.0886 22.6142 82.0886 22.5412C82.0886 22.4828 82.074 22.4244 81.9718 22.3952C81.928 22.3952 81.8696 22.3659 81.8696 22.3367C81.8696 22.2929 81.8988 22.2783 81.9572 22.2783H83.0377C83.0377 22.2783 83.1399 22.2783 83.1399 22.3221C83.1399 22.3659 83.0961 22.3805 83.0377 22.3805C82.9793 22.3805 82.8917 22.4098 82.8041 22.4536C82.6873 22.512 82.6289 22.5704 82.512 22.731C82.3368 22.9647 81.5776 24.2937 81.4753 24.5419C81.3877 24.7464 81.3877 24.9216 81.3877 25.1115C81.3877 25.1115 81.3877 25.9001 81.4023 26.1484C81.4023 26.309 81.4607 26.4404 81.6214 26.455C81.6944 26.455 81.8112 26.4842 81.8842 26.4842C81.9426 26.4842 81.9718 26.4988 81.9718 26.5281C81.9718 26.5719 81.928 26.5865 81.855 26.5865H80.351C80.278 26.5865 80.2342 26.5865 80.2342 26.5281C80.2342 26.4988 80.2634 26.4842 80.3218 26.4842C80.3948 26.4842 80.4679 26.4842 80.5117 26.455C80.6139 26.4258 80.6723 26.309 80.6869 26.1484C80.7015 25.9147 80.7015 25.1115 80.7015 25.1115" fill="black"/>
<path d="M84.0605 24.4541C84.0605 23.4903 84.6738 22.2197 86.2799 22.2197C87.6232 22.2197 88.4555 23.0521 88.4555 24.3519C88.4555 25.6516 87.594 26.6739 86.2215 26.6739C84.6738 26.6739 84.0459 25.4472 84.0459 24.4541M87.6962 24.5563C87.6962 23.2858 86.9516 22.4972 86.0755 22.4972C85.4622 22.4972 84.7906 22.8623 84.7906 24.2789C84.7906 25.4618 85.4622 26.3964 86.4843 26.3964C86.864 26.3964 87.6962 26.2066 87.6962 24.5563Z" fill="black"/>
<path d="M96.3984 24.4541C96.3984 23.4903 97.0117 22.2197 98.6325 22.2197C99.9758 22.2197 100.808 23.0521 100.808 24.3519C100.808 25.6516 99.9466 26.6739 98.574 26.6739C97.0263 26.6739 96.3984 25.4472 96.3984 24.4541ZM100.049 24.5563C100.049 23.2858 99.3041 22.4972 98.428 22.4972C97.8148 22.4972 97.1431 22.8623 97.1431 24.2789C97.1431 25.4618 97.8002 26.3964 98.8369 26.3964C99.2165 26.3964 100.049 26.2066 100.049 24.5563Z" fill="black"/>
<path d="M104.707 22.4098C104.707 22.4098 104.867 22.439 104.926 22.4828C105.028 22.5412 105.159 22.6873 105.305 22.8917C105.495 23.1838 106.211 24.4397 106.255 24.5274C106.328 24.688 106.371 24.8194 106.371 25.1261C106.371 25.1261 106.371 25.9147 106.371 26.163C106.371 26.3236 106.313 26.4551 106.211 26.4697C106.152 26.4697 106.094 26.4989 106.021 26.4989C105.963 26.4989 105.933 26.5135 105.933 26.5427C105.933 26.5865 105.977 26.6011 106.05 26.6011H107.539C107.539 26.6011 107.656 26.5865 107.656 26.5427C107.656 26.5135 107.627 26.4989 107.569 26.4989C107.496 26.4989 107.379 26.4989 107.306 26.4697C107.145 26.4405 107.101 26.3236 107.087 26.163C107.072 25.9293 107.072 25.1261 107.072 25.1261C107.072 24.9363 107.072 24.761 107.16 24.5566C107.262 24.3083 108.021 22.9794 108.197 22.7457C108.313 22.5997 108.372 22.5266 108.489 22.4682C108.576 22.4244 108.678 22.3952 108.722 22.3952C108.781 22.3952 108.824 22.3806 108.824 22.3368C108.824 22.3076 108.781 22.293 108.722 22.293H107.642C107.642 22.293 107.554 22.293 107.554 22.3514C107.554 22.3806 107.598 22.3952 107.656 22.4098C107.744 22.439 107.773 22.4974 107.773 22.5558C107.773 22.6289 107.744 22.7311 107.7 22.8479C107.627 23.0232 106.941 24.2645 106.897 24.4105C106.809 24.2499 106.05 22.8771 105.977 22.7165C105.933 22.6435 105.919 22.5704 105.919 22.5266C105.919 22.4828 105.948 22.439 105.992 22.4244C106.079 22.3952 106.109 22.3952 106.109 22.366C106.109 22.3368 106.079 22.3076 106.036 22.3076H103.568C103.568 22.3076 103.48 22.3076 103.48 22.366C103.48 22.3952 103.495 22.4098 103.553 22.4244C103.612 22.4244 103.626 22.4828 103.626 22.5412C103.626 22.6289 103.509 22.7749 103.363 22.9647C103.203 23.1546 102.414 24.0016 102.239 24.2207H102.21V23.9724C102.21 23.1108 102.21 22.9501 102.21 22.7749C102.21 22.585 102.268 22.4828 102.414 22.4536C102.473 22.4536 102.517 22.439 102.56 22.439C102.604 22.439 102.633 22.439 102.633 22.3952C102.633 22.3514 102.59 22.3368 102.517 22.3368H101.115C101.027 22.3368 100.998 22.3368 100.998 22.3952C100.998 22.4536 101.027 22.439 101.086 22.439C101.159 22.439 101.261 22.439 101.305 22.4536C101.48 22.4974 101.524 22.585 101.538 22.7749C101.538 22.9501 101.538 25.9439 101.538 26.1922C101.509 26.3529 101.48 26.4843 101.378 26.4989C101.319 26.4989 101.261 26.5281 101.188 26.5281C101.129 26.5281 101.1 26.5427 101.1 26.5719C101.1 26.6157 101.144 26.6303 101.202 26.6303H102.663C102.663 26.6303 102.765 26.6157 102.765 26.5719C102.765 26.5427 102.736 26.5281 102.692 26.5281C102.619 26.5281 102.502 26.5281 102.429 26.4989C102.298 26.4697 102.239 26.3529 102.225 26.1922C102.225 25.9439 102.225 25.5058 102.225 24.9801V24.4689H102.254L102.312 24.5566C102.429 24.7172 103.48 26.0316 103.729 26.2506C103.962 26.4697 104.108 26.5865 104.4 26.6157C104.517 26.6157 104.605 26.6157 104.765 26.6157H105.232C105.335 26.6157 105.364 26.6011 105.364 26.5573C105.364 26.5281 105.335 26.5135 105.291 26.5135C105.232 26.5135 105.116 26.4989 104.955 26.4259C104.663 26.309 104.429 26.0462 104.181 25.8125C103.977 25.6081 102.911 24.4105 102.721 24.1331C102.896 23.9286 103.714 23.0816 103.889 22.9063C104.123 22.6727 104.298 22.5558 104.473 22.4828C104.575 22.439 104.707 22.4244 104.78 22.4244" fill="black"/>
<path d="M108.356 24.4541C108.356 23.4903 108.97 22.2197 110.576 22.2197C111.919 22.2197 112.751 23.0521 112.751 24.3519C112.751 25.6516 111.89 26.6739 110.517 26.6739C108.97 26.6739 108.342 25.4472 108.342 24.4541M111.992 24.5563C111.992 23.2858 111.247 22.4972 110.371 22.4972C109.758 22.4972 109.086 22.8623 109.086 24.2789C109.086 25.4618 109.744 26.3964 110.78 26.3964C111.16 26.3964 111.992 26.2066 111.992 24.5563Z" fill="black"/>
<path d="M71.4587 27.0977C70.9769 27.0685 70.5389 26.9224 70.1592 26.5427C69.7942 26.1776 69.1663 25.2868 68.8013 24.6004C69.3415 24.1331 69.5168 23.7534 69.5168 23.3299C69.5168 22.9502 69.2977 22.6581 69.1517 22.5559C68.8597 22.3514 68.4947 22.3076 68.1588 22.3076H66.6549C66.5819 22.3076 66.5381 22.3076 66.5381 22.3514C66.5381 22.3952 66.5673 22.4098 66.6257 22.4098C66.6987 22.4098 66.7863 22.4098 66.8301 22.4244C67.0053 22.4683 67.0491 22.5559 67.0637 22.7457C67.0637 22.921 67.0637 23.0816 67.0637 23.9433V24.9363C67.0637 25.4621 67.0637 25.9148 67.0345 26.1484C67.0199 26.3091 66.9907 26.4405 66.8739 26.4551C66.8301 26.4551 66.7571 26.4843 66.6841 26.4843C66.6111 26.4843 66.5965 26.4989 66.5965 26.5281C66.5965 26.572 66.6403 26.5866 66.6987 26.5866H68.1442C68.1442 26.5866 68.2464 26.572 68.2464 26.5281C68.2464 26.4989 68.2172 26.4843 68.1734 26.4843C68.115 26.4843 67.9982 26.4843 67.9106 26.4551C67.75 26.4405 67.7208 26.3091 67.7062 26.1484C67.677 25.9148 67.677 25.4621 67.677 24.9363V24.8487C67.677 24.8487 67.677 24.8049 67.7208 24.8049H68.188C68.188 24.8049 68.261 24.8049 68.2903 24.8487C68.3487 24.9801 68.6261 25.6081 68.8597 26.0024C69.1079 26.3821 69.3415 26.6888 69.5752 26.8786C69.8672 27.1123 70.1738 27.1999 70.5389 27.2437C71.0061 27.2875 71.3273 27.2437 71.4149 27.2145C71.4879 27.1853 71.5902 27.1707 71.5902 27.1123C71.5902 27.0539 71.5025 27.0685 71.4149 27.0685M68.5239 24.4398C68.4217 24.5128 68.3633 24.542 68.1442 24.542C68.0128 24.542 67.8522 24.5274 67.7354 24.4836C67.6916 24.469 67.6916 24.4398 67.6916 24.3814V22.6581C67.6916 22.6581 67.6916 22.5851 67.7354 22.5851C67.7938 22.5705 67.8814 22.5559 68.0274 22.5559C68.3487 22.5559 68.8597 22.7895 68.8597 23.5928C68.8597 24.0601 68.6991 24.323 68.5385 24.4398" fill="black"/>
<path d="M38.46 22.2782C38.46 22.2782 38.4016 22.2928 38.314 22.322H35.2623C35.1309 22.322 35.0725 22.249 35.0287 22.249C34.9995 22.249 34.9849 22.2928 34.9557 22.3659C34.9557 22.4243 34.8389 23.0376 34.8389 23.0376C34.8389 23.0668 34.8681 23.096 34.8973 23.096C34.9265 23.096 34.9411 23.0814 34.9557 23.0668C34.9557 23.0668 34.9995 22.9208 35.0579 22.8332C35.1309 22.7017 35.2623 22.6871 35.5835 22.6725H36.3866C36.3866 22.6725 36.3866 25.9438 36.3574 26.1921C36.3428 26.3527 36.3136 26.4841 36.1968 26.4988C36.153 26.4988 36.08 26.528 36.007 26.528C35.9486 26.528 35.9194 26.5426 35.9194 26.5718C35.9194 26.6156 35.9632 26.6302 36.0216 26.6302H37.5547C37.5547 26.6302 37.6569 26.6156 37.6569 26.5718C37.6569 26.5426 37.6277 26.528 37.5693 26.528C37.4817 26.528 37.3649 26.528 37.2919 26.4988C37.1313 26.4841 37.0875 26.3527 37.0729 26.1921C37.0437 25.9438 37.0437 22.6725 37.0437 22.6725H37.7153C38.1972 22.6725 38.3432 22.8332 38.3432 22.9792V23.096C38.3432 23.096 38.3724 23.1545 38.4162 23.1545C38.46 23.1545 38.4746 23.1253 38.4746 23.096C38.4746 23.096 38.4746 22.4827 38.4746 22.4097C38.4746 22.322 38.4746 22.2928 38.4308 22.2928" fill="black"/>
<path d="M78.7452 22.2782C78.7452 22.2782 78.6868 22.2928 78.5992 22.322H75.5475C75.4161 22.322 75.3576 22.249 75.3138 22.249C75.2846 22.249 75.27 22.2928 75.2408 22.3659C75.2408 22.4243 75.124 23.0376 75.124 23.0376C75.124 23.0668 75.1532 23.096 75.1824 23.096C75.2116 23.096 75.2262 23.0814 75.2408 23.0668C75.2408 23.0668 75.2846 22.9208 75.343 22.8332C75.4306 22.7017 75.5475 22.6871 75.8687 22.6725H76.6718C76.6718 22.6725 76.6718 25.9438 76.6426 26.1921C76.628 26.3527 76.5988 26.4841 76.482 26.4988C76.4381 26.4988 76.3651 26.528 76.2921 26.528C76.2337 26.528 76.2045 26.5426 76.2045 26.5718C76.2045 26.6156 76.2483 26.6302 76.3067 26.6302H77.8399C77.8399 26.6302 77.9421 26.6156 77.9421 26.5718C77.9421 26.5426 77.9129 26.528 77.8545 26.528C77.7669 26.528 77.6501 26.528 77.5771 26.4988C77.4164 26.4841 77.3872 26.3527 77.3726 26.1921C77.3434 25.9438 77.3434 22.6725 77.3434 22.6725H78.0297C78.5115 22.6725 78.6576 22.8332 78.6576 22.9792V23.096C78.6576 23.096 78.6868 23.1545 78.7306 23.1545C78.7744 23.1545 78.789 23.1253 78.789 23.096C78.789 23.096 78.789 22.4827 78.789 22.4097C78.789 22.322 78.789 22.2928 78.7452 22.2928" fill="black"/>
<path d="M97.128 20.8329C97.128 20.8329 97.0404 20.8621 96.9382 20.8913H92.8644C92.6892 20.8767 92.6162 20.7891 92.5578 20.7891C92.514 20.7891 92.4994 20.8329 92.4702 20.9351C92.4556 21.0081 92.3096 21.8405 92.3096 21.8405C92.3096 21.8405 92.3096 21.8405 92.3096 21.8551C92.3096 21.899 92.3388 21.9282 92.3826 21.9282C92.4118 21.9282 92.441 21.9136 92.4556 21.8844C92.4556 21.8844 92.514 21.6945 92.587 21.5777C92.6892 21.417 92.8644 21.3732 93.2879 21.3586H94.3684C94.3684 21.3586 94.3684 25.7398 94.3392 26.0465C94.3246 26.2655 94.2808 26.4262 94.1347 26.4554C94.0763 26.47 93.9741 26.4846 93.8719 26.4846C93.7843 26.4846 93.7551 26.5138 93.7551 26.543C93.7551 26.6014 93.7989 26.616 93.9011 26.616H95.9307C96.0183 26.616 96.0621 26.5868 96.0621 26.543C96.0621 26.4992 96.0183 26.4846 95.9453 26.4846C95.8431 26.4846 95.6825 26.47 95.5803 26.4554C95.3613 26.4262 95.3174 26.2509 95.3028 26.0465C95.259 25.7252 95.259 21.344 95.259 21.344H96.1643C96.8068 21.3586 96.982 21.5631 97.0112 21.7675V21.9282C97.0112 21.9282 97.0696 22.0012 97.0988 22.0012C97.128 22.0012 97.1718 21.972 97.1718 21.9282C97.1718 21.9282 97.1718 21.1103 97.1718 21.0081C97.1718 20.8913 97.1718 20.8475 97.1134 20.8475" fill="black"/>
<path d="M46.3886 25.7979C46.3886 25.7979 46.3594 25.7394 46.3302 25.7394C46.301 25.7394 46.2864 25.7687 46.2718 25.7833C46.2134 26.0169 46.082 26.163 45.9506 26.236C45.8046 26.309 45.5855 26.309 45.4395 26.309C44.8847 26.309 44.8701 26.236 44.8701 25.8417C44.8701 25.681 44.8701 24.5127 44.8701 24.5127C44.8701 24.4835 44.8701 24.4543 44.8993 24.4543C45.0307 24.4543 45.5709 24.4543 45.6731 24.4689C45.8776 24.4981 45.9506 24.5711 45.9798 24.688C45.9944 24.761 45.9798 24.834 45.9798 24.8924C45.9798 24.9216 46.009 24.9508 46.0382 24.9508C46.0674 24.9508 46.0966 24.9362 46.0966 24.8924L46.1696 24.06C46.1696 24.0308 46.1404 24.0016 46.1112 24.0016C46.0966 24.0016 46.082 24.0016 46.0674 24.0308C46.0674 24.0308 46.0674 24.06 46.0382 24.0746C45.9944 24.133 45.9068 24.1476 45.7754 24.1622C45.6439 24.1622 45.0307 24.1622 44.9139 24.1622C44.8847 24.1622 44.8701 24.133 44.8701 24.1038V22.6726C44.8701 22.6726 44.8701 22.6142 44.9139 22.6142C45.0161 22.6142 45.5855 22.6142 45.6731 22.6434C45.936 22.6726 45.9944 22.7456 46.0382 22.8479C46.0674 22.9209 46.0674 23.0377 46.0674 23.0669C46.0674 23.0961 46.0966 23.1253 46.1258 23.1253C46.155 23.1253 46.1842 23.0961 46.1842 23.0815C46.1842 23.0085 46.2426 22.3659 46.2426 22.3221C46.2426 22.2929 46.2426 22.2783 46.2134 22.2783C46.1842 22.2783 46.155 22.2929 46.1258 22.3075C46.082 22.3075 45.9944 22.3367 45.8922 22.3367H43.7604C43.6728 22.3367 43.6436 22.3367 43.6436 22.3805C43.6436 22.4244 43.6728 22.4244 43.7312 22.4244C43.8042 22.4244 43.8918 22.4244 43.9502 22.439C44.1254 22.4828 44.1692 22.5704 44.1838 22.7602C44.1838 22.9355 44.1838 25.9293 44.1692 26.1776C44.1546 26.3382 44.1254 26.4696 44.0086 26.4842C43.9648 26.4842 43.8918 26.5135 43.8188 26.5135C43.7604 26.5135 43.7312 26.5281 43.7312 26.5573C43.7312 26.6011 43.775 26.6157 43.8334 26.6157H46.009C46.2134 26.6157 46.2718 26.6303 46.301 26.4842C46.3156 26.3674 46.3886 25.8125 46.3886 25.8125" fill="black"/>
<path d="M63.6916 22.4093C63.7646 22.4093 63.8522 22.4093 63.896 22.4239C64.0712 22.4677 64.115 22.5553 64.1296 22.7452C64.1296 22.9204 64.1296 25.9142 64.1296 26.1625C64.1004 26.3232 64.0858 26.4546 63.969 26.4692C63.9252 26.4692 63.8522 26.4984 63.7792 26.4984C63.7208 26.4984 63.6916 26.513 63.6916 26.5422C63.6916 26.586 63.7354 26.6006 63.7938 26.6006H65.9694C66.1738 26.6006 66.2322 26.6152 66.2614 26.4692C66.276 26.3524 66.349 25.7974 66.349 25.7974C66.349 25.7682 66.3198 25.739 66.2906 25.739C66.2614 25.739 66.2322 25.7682 66.2322 25.7828C66.1738 26.0165 66.057 26.1625 65.911 26.2355C65.765 26.3086 65.546 26.3086 65.3999 26.3086C64.8451 26.3086 64.8451 26.2355 64.8305 25.8412C64.8305 25.6806 64.8305 24.5123 64.8305 24.5123C64.8305 24.4831 64.8305 24.4539 64.8597 24.4539C64.9911 24.4539 65.5167 24.4539 65.619 24.4685C65.8234 24.4977 65.8964 24.5707 65.9256 24.6875C65.9402 24.7605 65.9256 24.8336 65.9256 24.892C65.9256 24.9212 65.9548 24.9504 65.984 24.9504C66.0132 24.9504 66.0424 24.9358 66.0424 24.9066L66.1154 24.0742C66.1154 24.0449 66.0862 24.0157 66.057 24.0157C66.0424 24.0157 66.0132 24.0157 66.0132 24.0449C66.0132 24.0449 66.0132 24.0742 65.984 24.0888C65.9402 24.1472 65.8526 24.1618 65.7212 24.1764C65.6044 24.1764 64.9765 24.1764 64.8597 24.1764C64.8305 24.1764 64.8159 24.1472 64.8159 24.118V22.6868C64.8159 22.6868 64.8159 22.6284 64.8597 22.6284C64.9619 22.6284 65.5313 22.6284 65.619 22.6576C65.8818 22.6868 65.9402 22.7598 65.984 22.862C66.0132 22.9351 66.0132 23.0519 66.0132 23.0811C66.0132 23.1103 66.0424 23.1395 66.0716 23.1395C66.1008 23.1395 66.13 23.1103 66.13 23.0957C66.13 23.0227 66.1884 22.3801 66.1884 22.3363C66.1884 22.3071 66.1884 22.2925 66.1592 22.2925C66.13 22.2925 66.1008 22.3071 66.0716 22.3071C66.0278 22.3071 65.9402 22.3363 65.838 22.3363H62.5819C62.4797 22.3363 62.4359 22.3363 62.4359 22.3947C62.4359 22.4531 62.4797 22.4385 62.5235 22.4385C62.5965 22.4385 62.6695 22.4385 62.7425 22.4677C62.7863 22.4823 62.8155 22.5261 62.8155 22.57C62.8155 22.6138 62.8009 22.7014 62.7717 22.7744C62.6403 23.1541 61.9394 24.9796 61.7058 25.593H61.6912L60.7567 23.0227C60.6837 22.8182 60.6399 22.6576 60.6399 22.5846C60.6399 22.5261 60.6545 22.4969 60.6837 22.4677C60.7275 22.4385 60.8151 22.4239 60.9027 22.4239C60.9465 22.4239 60.9903 22.4239 60.9903 22.3801C60.9903 22.3363 60.9319 22.3217 60.8735 22.3217H56.6683C56.5807 22.3217 56.5223 22.3217 56.5223 22.3801C56.5223 22.4093 56.5515 22.4239 56.6099 22.4239C56.6829 22.4239 56.8143 22.4239 56.9019 22.4531C57.0333 22.5115 57.0771 22.6138 57.0918 22.9643L57.1502 25.5199H57.121C57.0333 25.4323 54.3321 22.3801 54.2591 22.3071C54.1715 22.2049 54.1131 22.1318 54.0547 22.1318C53.9963 22.1318 53.9817 22.2049 53.9817 22.3217L53.9379 25.7828C53.9379 26.2793 53.9087 26.44 53.7772 26.4838C53.7042 26.4984 53.602 26.513 53.529 26.513C53.4706 26.513 53.4414 26.513 53.4414 26.5568C53.4414 26.6006 53.4852 26.6152 53.5582 26.6152H54.8139C54.8869 26.6152 54.9307 26.6152 54.9307 26.5568C54.9307 26.5276 54.9015 26.513 54.8431 26.513C54.7555 26.513 54.6533 26.513 54.5657 26.4692C54.4635 26.4254 54.3905 26.2793 54.3759 25.8412L54.3175 23.3586C54.4197 23.4754 56.8581 26.2939 57.194 26.6298C57.2524 26.6883 57.3254 26.7613 57.3838 26.7613C57.4276 26.7613 57.4568 26.7029 57.4568 26.586L57.5152 22.9351C57.5152 22.6138 57.559 22.4969 57.7196 22.4531C57.778 22.4385 57.8656 22.4385 57.9094 22.4385C57.9678 22.4385 58.0846 22.4385 58.1577 22.4677C58.2745 22.4969 58.3329 22.5992 58.3329 22.789C58.3329 22.9643 58.3329 25.9873 58.3183 26.2355C58.3037 26.3962 58.2745 26.4984 58.1577 26.513C58.1139 26.513 58.0408 26.5422 57.9678 26.5422C57.9094 26.5422 57.8802 26.5568 57.8802 26.586C57.8802 26.6298 57.924 26.6444 57.9824 26.6444H59.501C59.501 26.6444 59.6032 26.6298 59.6032 26.586C59.6032 26.5568 59.574 26.5422 59.5156 26.5422C59.4426 26.5422 59.3112 26.5422 59.2382 26.513C59.0775 26.4838 59.0337 26.3816 59.0191 26.2355C59.0045 25.9873 59.0045 22.9643 59.0191 22.789C59.0191 22.5992 59.0775 22.4969 59.2236 22.4677C59.2966 22.4677 59.3258 22.4531 59.3842 22.4531C59.428 22.4531 59.4864 22.4531 59.5594 22.4823C59.7492 22.5407 59.8514 22.5992 59.9682 22.9204L61.3262 26.3962C61.4284 26.659 61.4576 26.7467 61.5306 26.7467C61.6036 26.7467 61.6474 26.659 61.7788 26.3232C61.8956 26.0457 62.9323 23.5776 63.1367 23.0519C63.2827 22.6868 63.3557 22.5992 63.4287 22.5407C63.531 22.4677 63.6478 22.4677 63.6916 22.4677" fill="black"/>
<path d="M89.7546 24.4397C89.886 24.4397 90.4117 24.4397 90.5139 24.4543C90.7183 24.4836 90.7913 24.5712 90.8205 24.688C90.8351 24.761 90.8205 24.834 90.8205 24.8925C90.8205 24.9217 90.8497 24.9509 90.8789 24.9509C90.9081 24.9509 90.9373 24.9217 90.9373 24.9071L91.0103 24.0746C91.0103 24.0746 90.9811 24.0162 90.9519 24.0162C90.9373 24.0162 90.9081 24.0162 90.8935 24.0454C90.8935 24.0454 90.8789 24.0746 90.8643 24.0892C90.8205 24.1477 90.7329 24.1623 90.6015 24.1769C90.4847 24.1769 89.8568 24.1769 89.74 24.1769C89.7108 24.1769 89.6962 24.1623 89.6962 24.1185V22.7019C89.6962 22.7019 89.6962 22.6289 89.74 22.6289H90.5723C90.7767 22.6581 90.8789 22.7311 90.9081 22.8187C90.9373 22.9063 90.9373 23.0232 90.9373 23.067C90.9373 23.0962 90.9665 23.1254 90.9957 23.1254C91.0249 23.1254 91.0541 23.1108 91.0541 23.0816C91.0541 23.0816 91.1271 22.3806 91.1271 22.3368C91.1271 22.3076 91.1125 22.293 91.0833 22.293C91.0541 22.293 91.0249 22.3222 90.9957 22.3222C90.9373 22.3368 90.8789 22.3222 90.7767 22.3222C90.6453 22.3222 88.7179 22.3222 88.5719 22.3222C88.4989 22.3222 88.4551 22.3222 88.4551 22.3806C88.4551 22.4098 88.4989 22.4244 88.5427 22.4244C88.6157 22.4244 88.7033 22.4244 88.7471 22.439C88.9223 22.4828 88.9661 22.5704 88.9807 22.7603C88.9807 22.9355 88.9807 25.9293 88.9661 26.1776C88.9369 26.3382 88.9223 26.4697 88.8055 26.4843C88.7471 26.4843 88.6887 26.5135 88.6157 26.5135C88.5573 26.5135 88.5427 26.5281 88.5427 26.5573C88.5427 26.6011 88.5865 26.6157 88.6595 26.6157H90.1634C90.251 26.6157 90.2803 26.6011 90.2803 26.5573C90.2803 26.5281 90.2656 26.5135 90.1926 26.5135C90.1196 26.5135 90.0028 26.5135 89.9298 26.4843C89.7692 26.4551 89.74 26.3382 89.7254 26.1776C89.6962 25.9439 89.6962 24.5128 89.6962 24.5128C89.6962 24.469 89.6962 24.4689 89.74 24.4689" fill="black"/>
<path d="M71.9555 24.016L71.8095 23.8991C71.3569 23.534 71.2401 23.3442 71.2401 23.0813C71.2401 22.7454 71.4883 22.4972 71.8825 22.4972C72.233 22.4972 72.3936 22.6724 72.4666 22.7746C72.5834 22.9207 72.6126 23.0959 72.6126 23.1543C72.6126 23.1835 72.6126 23.1981 72.6126 23.2127C72.6126 23.2127 72.6126 23.2127 72.6126 23.2274C72.6126 23.2274 72.6126 23.242 72.6272 23.242C72.6272 23.242 72.6418 23.242 72.6564 23.242C72.6856 23.242 72.7148 23.2127 72.7148 23.1835V22.4241V22.3803C72.7148 22.3365 72.6856 22.3219 72.6418 22.3073C72.4958 22.2635 72.2768 22.2051 71.9263 22.2051C71.1817 22.2051 70.6852 22.6578 70.6852 23.2712C70.6852 23.7385 70.8896 24.1328 71.4883 24.6147L71.7365 24.8192C72.1892 25.1843 72.2622 25.4471 72.2622 25.7246C72.2622 26.0313 72.0285 26.3818 71.5467 26.3818C71.2109 26.3818 70.8896 26.2211 70.7728 25.8122C70.7436 25.71 70.729 25.5932 70.729 25.5202C70.729 25.5056 70.729 25.491 70.729 25.4763C70.729 25.4471 70.6998 25.4179 70.6706 25.4179C70.6414 25.4179 70.6122 25.4471 70.6122 25.4763L70.583 26.3088C70.583 26.4402 70.583 26.4694 70.6852 26.4986C70.9188 26.6008 71.1525 26.6447 71.4737 26.6447C71.7511 26.6447 72.0577 26.5862 72.3352 26.411C72.7148 26.1481 72.8462 25.7538 72.8462 25.4179C72.8462 24.8776 72.6126 24.4979 71.9555 23.9721" fill="black"/>
</g>
<defs>
<clipPath id="clip0_463_6219">
<rect width="113" height="31" fill="white"/>
</clipPath>
</defs>
</svg>
